<?xml version="1.0" encoding="UTF-8" standalone="no"?>
<!-- Created with Inkscape (http://www.inkscape.org/) -->

<svg
   xmlns:dc="http://purl.org/dc/elements/1.1/"
   xmlns:cc="http://creativecommons.org/ns#"
   xmlns:rdf="http://www.w3.org/1999/02/22-rdf-syntax-ns#"
   xmlns:svg="http://www.w3.org/2000/svg"
   xmlns="http://www.w3.org/2000/svg"
   xmlns:sodipodi="http://sodipodi.sourceforge.net/DTD/sodipodi-0.dtd"
   xmlns:inkscape="http://www.inkscape.org/namespaces/inkscape"
   width="512"
   height="512"
   viewBox="0 0 135.46666 135.46666"
   version="1.1"
   id="svg8"
   inkscape:version="0.92.2 (5c3e80d, 2017-08-06)"
   sodipodi:docname="forgeApes_512_BASE.svg"
   inkscape:export-filename="L:\Documents\forgeApes\forgeApes_BASE_64.png"
   inkscape:export-xdpi="96"
   inkscape:export-ydpi="96">
  <defs
     id="defs2" />
  <sodipodi:namedview
     id="base"
     pagecolor="#ffffff"
     bordercolor="#000000"
     borderopacity="1"
     inkscape:pageopacity="0.0"
     inkscape:pageshadow="2"
     inkscape:zoom="1.4"
     inkscape:cx="359.78937"
     inkscape:cy="260.09932"
     inkscape:document-units="px"
     inkscape:current-layer="layer3"
     showgrid="false"
     units="px"
     inkscape:window-width="1920"
     inkscape:window-height="1017"
     inkscape:window-x="-8"
     inkscape:window-y="-8"
     inkscape:window-maximized="1"
     inkscape:pagecheckerboard="true"
     fit-margin-top="0"
     fit-margin-left="0"
     fit-margin-right="0"
     fit-margin-bottom="0" />
  <metadata
     id="metadata5">
    <rdf:RDF>
      <cc:Work
         rdf:about="">
        <dc:format>image/svg+xml</dc:format>
        <dc:type
           rdf:resource="http://purl.org/dc/dcmitype/StillImage" />
        <dc:title></dc:title>
      </cc:Work>
    </rdf:RDF>
  </metadata>
  <g
     inkscape:groupmode="layer"
     id="layer2"
     inkscape:label="Hammer"
     style="display:none"
     sodipodi:insensitive="true"
     transform="translate(-0.26458346,0.26418453)">
    <g
       id="g4917"
       transform="matrix(0.11866719,0,0,0.11866718,40.213186,-25.83973)">
      <path
         id="path4879"
         d="m 35.3,468.4 c -6,-11.4 -9.7,-21.5 -11.2,-29.9 -1.1,-6.4 -0.9,-11.8 0.5,-16 1.4,-3.9 3.6,-5.9 4.8,-6.7 0.4,-0.2 0.8,-0.4 1.2,-0.4 l 45.8,-1.2 c 1.3,0 2.5,0.7 3.1,1.8 0.6,1.1 0.5,2.4 -0.2,3.4 -3.9,6.1 -7.3,15.8 -1.4,27.9 l 0.3,0.6 0.3,0.5 0.4,0.6 c 6.6,11.2 16.3,13.9 23.4,14.2 h 0.1 c 1.2,0.1 2.3,0.7 2.9,1.8 0.6,1.2 0.5,2.6 -0.3,3.6 L 77.7,505 c -0.4,0.6 -1,0.9 -1.6,1.1 -1.6,0.5 -4.3,0.9 -7.9,-0.1 -4.4,-1.2 -8.9,-4.2 -13.5,-8.8 -6,-6 -12,-14.6 -17.8,-25.7 z"
         class="st0"
         inkscape:connector-curvature="0"
         style="fill:#010101" />
      <path
         id="path4881"
         d="m 232.5,385.2 c -0.2,-0.4 -0.4,-0.9 -0.6,-1.4 -0.9,-3.1 -1.7,-6.3 -2.3,-9.4 -1.7,-8.5 -3,-21.2 0.6,-32.9 0.6,-2 1.9,-3.6 3.7,-4.6 l 11,-5.8 c 1.8,-0.9 3.8,-1.1 5.6,-0.6 1.9,0.6 3.5,1.9 4.5,3.7 0.7,1.2 0.9,2.6 0.9,4.1 v 0.2 c -0.4,6.4 0.1,13.5 1.6,20.9 0.8,4.1 1.9,8.3 3.3,12.5 1.1,3.5 -0.4,7.2 -3.6,8.9 l -14.4,7.7 c -1.8,0.9 -3.8,1.1 -5.7,0.5 -2.1,-0.7 -3.7,-2 -4.6,-3.8 z"
         class="st0"
         inkscape:connector-curvature="0"
         style="fill:#010101" />
      <path
         id="path4883"
         d="m 261.3,370 c -0.2,-0.4 -0.4,-0.9 -0.6,-1.4 -0.9,-3.1 -1.7,-6.3 -2.3,-9.4 -1.7,-8.5 -3,-21.2 0.6,-32.9 0.6,-2 1.9,-3.6 3.7,-4.6 l 11,-5.8 c 1.8,-0.9 3.8,-1.1 5.6,-0.6 1.9,0.6 3.5,1.9 4.5,3.7 0.6,1.2 0.9,2.6 0.9,4.1 l -1,0.1 1,0.1 c -0.4,6.4 0.1,13.5 1.6,20.9 0.8,4.1 1.9,8.3 3.3,12.4 1.1,3.5 -0.4,7.2 -3.6,8.9 l -14.4,7.7 c -1.8,0.9 -3.8,1.1 -5.7,0.5 -2.1,-0.7 -3.7,-2 -4.6,-3.7 z"
         class="st0"
         inkscape:connector-curvature="0"
         style="fill:#010101" />
      <path
         id="path4885"
         d="m 289.2,351.2 c -0.4,-0.8 -0.7,-1.6 -0.9,-2.5 -0.4,-1.6 -0.8,-3.2 -1.1,-4.8 -1.6,-8.1 -2.9,-20.1 0.1,-31.5 0.8,-2.9 2.7,-5.3 5.5,-6.8 l 14.5,-7.7 c 1.1,-0.6 2.3,-0.7 3.4,-0.3 1.2,0.4 2.1,1.2 2.7,2.3 0.5,0.9 0.6,1.9 0.5,2.9 -0.2,1.7 -0.4,3.4 -0.5,5.1 -0.4,6.5 0.1,13.5 1.6,20.9 0.6,3.3 1.5,6.6 2.5,9.9 1.5,5 -0.8,10.4 -5.4,12.8 l -7.9,4.2 c -2.6,1.4 -5.6,1.7 -8.4,0.8 -2.9,-0.8 -5.3,-2.8 -6.6,-5.3 z"
         class="st0"
         inkscape:connector-curvature="0"
         style="fill:#010101" />
      <path
         id="path4887"
         d="m 175,415.7 c -0.2,-0.4 -0.4,-0.9 -0.6,-1.4 -0.9,-3.2 -1.7,-6.3 -2.3,-9.4 -1.7,-8.5 -3,-21.2 0.6,-32.9 0.6,-2 1.9,-3.6 3.7,-4.6 l 11,-5.8 c 1.8,-0.9 3.8,-1.1 5.6,-0.6 1.9,0.6 3.5,1.9 4.5,3.7 0.6,1.2 0.9,2.6 0.9,4.1 l -1,0.1 1,0.1 c -0.4,6.5 0.1,13.5 1.6,20.9 0.8,4.1 1.9,8.3 3.3,12.5 1.1,3.5 -0.4,7.2 -3.6,8.9 l -14.4,7.7 c -1.8,0.9 -3.8,1.1 -5.7,0.5 -2.1,-0.7 -3.7,-2 -4.6,-3.8 0,0 0,0 0,0 z"
         class="st0"
         inkscape:connector-curvature="0"
         style="fill:#010101" />
      <path
         id="path4889"
         d="m 203.7,400.5 c -0.2,-0.4 -0.4,-0.9 -0.6,-1.4 -0.9,-3.2 -1.7,-6.3 -2.3,-9.4 -1.7,-8.5 -3,-21.2 0.6,-32.9 0.6,-2 1.9,-3.6 3.7,-4.6 l 11,-5.8 c 1.8,-0.9 3.8,-1.1 5.6,-0.6 1.9,0.6 3.5,1.9 4.5,3.7 0.7,1.2 0.9,2.6 0.9,4.1 v 0.1 c -0.4,6.4 0.1,13.5 1.6,20.9 0.8,4.1 1.9,8.3 3.3,12.5 1.1,3.5 -0.4,7.2 -3.6,8.9 l -14.4,7.7 c -1.8,0.9 -3.8,1.1 -5.7,0.5 -2.1,-0.7 -3.6,-2 -4.6,-3.7 z"
         class="st0"
         inkscape:connector-curvature="0"
         style="fill:#010101" />
      <path
         id="path4891"
         d="m 117.4,446.2 c -0.2,-0.4 -0.4,-0.9 -0.6,-1.4 -0.9,-3.2 -1.7,-6.3 -2.3,-9.4 -1.7,-8.5 -3,-21.2 0.5,-32.9 0.6,-2 1.9,-3.6 3.7,-4.6 l 11,-5.8 c 1.8,-0.9 3.8,-1.1 5.6,-0.6 1.9,0.6 3.5,1.9 4.4,3.7 0.7,1.2 0.9,2.6 0.9,4.1 v 0.1 c -0.4,6.5 0.1,13.5 1.6,20.9 0.8,4.1 1.9,8.3 3.3,12.5 1.1,3.5 -0.4,7.2 -3.6,8.9 l -14.4,7.7 c -1.8,0.9 -3.8,1.1 -5.7,0.5 -1.9,-0.6 -3.5,-1.9 -4.4,-3.7 z"
         class="st0"
         inkscape:connector-curvature="0"
         style="fill:#010101" />
      <path
         id="path4893"
         d="m 146.2,431 c -0.2,-0.4 -0.4,-0.9 -0.6,-1.4 -0.9,-3.2 -1.7,-6.3 -2.3,-9.4 -1.7,-8.5 -3,-21.2 0.6,-32.9 0.6,-2 1.9,-3.6 3.7,-4.6 l 11,-5.8 c 1.8,-0.9 3.8,-1.1 5.6,-0.6 1.9,0.6 3.5,1.9 4.5,3.7 0.6,1.2 0.9,2.6 0.9,4.1 l -1,0.1 1,0.1 c -0.4,6.5 0.1,13.5 1.6,20.9 0.8,4.1 1.9,8.3 3.3,12.5 1.1,3.5 -0.4,7.2 -3.6,8.9 l -14.4,7.7 c -1.8,0.9 -3.8,1.1 -5.7,0.5 -2.1,-0.8 -3.7,-2.1 -4.6,-3.8 z"
         class="st0"
         inkscape:connector-curvature="0"
         style="fill:#010101" />
      <polygon
         id="polygon4895"
         points="262.3,374 262.3,373.9 264.2,373.3 "
         class="st0"
         style="fill:#010101" />
      <path
         id="path4897"
         d="m 79.8,447.5 c -10,-19 3.9,-30.8 4.1,-31 l 0.1,-0.1 17.2,-9.1 c 1.8,-0.9 3.8,-1.1 5.6,-0.6 1.9,0.6 3.5,1.9 4.5,3.7 0.6,1.2 0.9,2.6 0.9,4.1 l -1,0.1 1,0.1 c -0.4,6.4 0.1,13.5 1.6,20.9 0.8,4.1 1.9,8.3 3.3,12.5 1.1,3.5 -0.4,7.2 -3.6,8.9 l -7.7,4.1 h -0.1 c -0.3,0 -15.7,5.6 -25.9,-13.6 z"
         class="st0"
         inkscape:connector-curvature="0"
         style="fill:#010101" />
      <path
         id="path4899"
         d="m 478.7,164.5 c -1.3,-2.5 -0.4,-5.5 2.1,-6.9 1.2,-0.6 2.6,-0.8 3.9,-0.4 1.3,0.4 2.4,1.3 3,2.5 l 58.5,110.5 c 1.3,2.5 0.4,5.6 -2.1,6.9 -1.2,0.6 -2.6,0.8 -3.9,0.4 -1.3,-0.4 -2.4,-1.3 -3,-2.5 z"
         class="st0"
         inkscape:connector-curvature="0"
         style="fill:#010101" />
      <path
         id="path4901"
         d="m 318.6,338.6 c -0.3,-0.5 -0.5,-1.1 -0.6,-1.6 -0.8,-2.8 -1.5,-5.6 -2,-8.4 -1.8,-9.3 -3.1,-23 1.4,-35.4 0.2,-0.5 0.5,-0.9 1,-1.1 l 6.6,-3.5 c 1.3,-0.7 2.8,-1 4.2,-0.7 1.7,0.4 3.1,1.4 3.9,2.9 l 17.6,33.3 c 1.6,3 0.4,6.7 -2.5,8.2 l -18.1,9.6 c -2,1 -4.2,1.3 -6.4,0.6 -2.3,-0.5 -4,-1.9 -5.1,-3.9 0,0 0,0 0,0 z"
         class="st0"
         inkscape:connector-curvature="0"
         style="fill:#010101" />
      <path
         id="path4903"
         d="M 329.8,287.2"
         class="st0"
         inkscape:connector-curvature="0"
         style="fill:#010101" />
      <path
         id="path4905"
         d="m 389.1,282.2 c -0.2,-0.3 -0.3,-0.7 -0.2,-1.1 0.4,-3.4 1.1,-6.7 2.1,-9.9 3.9,-12.1 12,-22.4 22.8,-28.9 0.7,-0.4 1.5,-0.4 2.1,0.1 6.3,4.7 11.4,10.6 15.1,17.6 l 0.2,0.4 c 3.7,7.2 5.7,14.9 5.8,23 0,0.8 -0.4,1.5 -1.1,1.8 -11.6,5 -24.7,5.7 -36.8,1.8 -3.2,-1 -6.3,-2.4 -9.3,-4 -0.2,-0.2 -0.5,-0.4 -0.7,-0.8 z"
         class="st0"
         inkscape:connector-curvature="0"
         style="fill:#010101" />
      <path
         id="path4907"
         d="m 394.4,311.2 c -2.7,-5.2 -4.5,-10.8 -5.3,-16.6 -0.1,-0.7 0.2,-1.3 0.7,-1.7 0.5,-0.4 1.3,-0.5 1.9,-0.2 13.2,5.6 28,6.3 41.6,2 0.9,-0.3 1.8,0.1 2.3,0.9 0.2,0.4 0.3,0.9 0.2,1.3 -0.3,1.2 -0.6,2.5 -1,3.6 -3.9,12.1 -12,22.4 -22.8,28.9 -0.7,0.4 -1.5,0.4 -2.1,-0.1 -6.3,-4.7 -11.5,-10.7 -15.1,-17.6 z"
         class="st0"
         inkscape:connector-curvature="0"
         style="fill:#010101" />
      <path
         id="path4909"
         d="m 368.5,261.1 c -3.6,-7.1 -5.6,-15 -5.8,-23 0,-0.8 0.4,-1.5 1.2,-1.8 11.6,-5 24.7,-5.7 36.8,-1.8 1.2,0.4 2.4,0.8 3.6,1.3 0.4,0.2 0.7,0.5 0.9,0.9 0.4,0.8 0.2,1.8 -0.5,2.4 -11.4,8.6 -19.4,21 -22.5,35 -0.1,0.7 -0.6,1.2 -1.3,1.4 -0.6,0.2 -1.3,0 -1.8,-0.4 -4.1,-3.9 -7.6,-8.5 -10.3,-13.6 z"
         class="st0"
         inkscape:connector-curvature="0"
         style="fill:#010101" />
      <path
         id="path4911"
         d="m 281,182.3 c -1.6,-3 -1.7,-6.4 -0.4,-9.5 l 10.5,-24.4 c 0.7,-1.6 2,-3 3.6,-3.9 l 103.8,-55 c 2.2,-1.2 4.7,-1.5 7.1,-1.1 l 24.6,4.8 c 3.6,0.7 6.6,3 8.4,6.2 l 130.3,245.9 c 1.5,2.9 1.7,6.3 0.5,9.3 l -8.5,21.5 c -1.3,3.2 -3.7,5.9 -6.8,7.6 l -104.8,55.5 c -3,1.6 -6.6,2 -9.9,1.1 L 416.9,434 c -1.8,-0.5 -3.4,-1.8 -4.3,-3.4 z m 99.5,104.4 c 0.1,0.3 0.2,0.5 0.2,0.8 0,9.8 2.4,19.2 7,27.8 0.7,1.3 1.5,2.7 2.3,4 4.7,7.5 11.3,14 19.5,19.3 l 0.9,0.6 2,-1 c 18.2,-9.4 30.3,-27.2 32.4,-47.6 0.1,-0.6 0.4,-1.1 0.9,-1.4 17.7,-10.3 28.9,-28.7 29.8,-49.2 l 0.1,-2.3 -1.9,-1.2 c -17.2,-11.1 -38.7,-12.7 -57.4,-4.2 -0.5,0.2 -1.2,0.2 -1.7,-0.1 C 396.8,222 375.3,221.6 357,231 l -2,1 v 1 c -0.5,9.8 1,18.9 4.4,27.1 0.7,1.7 1.5,3.5 2.4,5.1 4.4,8.3 10.5,15.3 18.1,20.8 0.3,0.2 0.4,0.4 0.6,0.7 z"
         class="st0"
         inkscape:connector-curvature="0"
         style="fill:#010101" />
      <path
         id="path4913"
         d="m 444.8,277.7 c -0.1,-0.2 -0.2,-0.4 -0.2,-0.6 -0.9,-7.1 -3,-13.8 -6.2,-20.2 l -0.3,-0.5 c -3.2,-6.1 -7.5,-11.6 -12.6,-16.3 -0.2,-0.1 -0.3,-0.3 -0.4,-0.5 -0.3,-0.5 -0.3,-1.1 -0.1,-1.6 0.2,-0.5 0.6,-0.9 1.2,-1.1 13.3,-3.9 27.9,-2.3 40.1,4.3 0.3,0.2 0.6,0.5 0.8,0.8 0.2,0.3 0.3,0.7 0.2,1.1 -1.6,13.8 -8.8,26.6 -19.7,35.2 -0.4,0.3 -1,0.5 -1.5,0.4 -0.6,-0.2 -1.1,-0.5 -1.3,-1 z"
         class="st0"
         inkscape:connector-curvature="0"
         style="fill:#010101" />
      <polygon
         id="polygon4915"
         points=""
         class="st1"
         style="fill:#ffffff" />
    </g>
  </g>
  <g
     inkscape:label="Monkey"
     inkscape:groupmode="layer"
     id="layer1"
     transform="translate(-0.26458346,-161.26913)"
     style="display:none"
     sodipodi:insensitive="true">
    <g
       id="#000000ff"
       transform="matrix(0.17689175,0,0,0.17650204,18.745919,168.65015)">
      <path
         id="path4811"
         d="m 198.33,17.31 c 3.72,-7.9 11.46,-12.84 18.96,-16.72 4.46,-1.35 9.3,0.58 12.6,3.66 5.08,4.72 12.19,0.84 18.19,1.64 4.43,0.33 7.35,4.17 11.34,5.59 2.58,0.3 5.1,-0.61 7.66,-0.76 8.03,-0.55 16.65,3.35 20.51,10.64 8.12,16.66 4.7,39.17 -10.26,50.9 1.15,3.66 3.74,6.84 4.17,10.7 -0.27,9.49 -6.02,18.56 -14.29,23.15 -4.72,2.74 -10.55,3.65 -14.49,7.64 -3.87,4.93 -6.05,11.02 -7.29,17.11 -3.29,16.61 -6.5,33.27 -7.99,50.15 13.15,1.05 25.95,8.79 31.35,21.11 5.39,-11.08 13.64,-20.55 23.17,-28.27 13.94,-11.32 30.02,-19.52 45.76,-27.99 8.75,-3.02 18.8,-4.08 27.55,-0.43 0.38,1.32 0.78,2.64 1.17,3.97 8.51,-0.2 17.15,-0.59 25.51,1.3 2.99,0.63 4.74,3.43 6.9,5.33 -1.78,1.31 -3.55,2.61 -5.34,3.9 2.54,1.46 5.49,2.76 6.94,5.47 0.93,1.68 0.62,3.67 0.73,5.51 -3.83,1.18 -7.71,2.18 -11.66,2.84 6.25,7.53 10.53,16.43 16.6,24.1 7.37,11.52 4.29,25.8 4.21,38.65 3.41,-2.57 6.61,-5.7 10.76,-7.05 4.8,-1.25 10.41,-1.01 14.42,2.21 5.64,4.42 8.7,11.39 9.94,18.29 1.5,9.37 -1.38,18.62 -3.32,27.69 15.88,3.62 31.51,9.76 44.3,20.06 17.42,15.18 33.04,34.54 37.26,57.85 1.9,9.31 10.02,15.51 17.96,19.72 -0.02,1.02 -0.04,2.04 -0.06,3.07 -0.97,0.91 -1.95,1.82 -2.92,2.74 8.13,8.29 14.57,19.05 14.94,30.92 0.3,4.88 -1.37,9.53 -2.33,14.24 -1.79,10.43 0.35,20.97 2.1,31.26 -3.44,1.88 -7.52,2.77 -11.36,1.66 -2.39,-2.13 -2.71,-5.56 -3.65,-8.44 -7.38,5.42 -15.63,11.42 -25.27,10.73 -5.34,-0.82 -10.58,-2.22 -15.92,-3.07 -5.95,-0.93 -10.96,-4.73 -16.93,-5.55 -6.4,-1.18 -13.59,-1.72 -18.46,-6.59 -7.57,-6.78 -8.88,-17.54 -9.39,-27.1 0.19,-3.1 -3.18,-4.07 -5.56,-4.74 -9.98,-2.7 -20.53,-5.75 -30.88,-3.25 -5.05,1.29 -9.28,4.52 -13.99,6.6 -1.57,-3.93 -2.91,-7.96 -3.95,-12.06 9.77,-4.66 17.74,-12.15 26.97,-17.68 8.42,-5.1 18.34,-6.48 27.42,-9.97 -0.44,-7.05 5.48,-12.3 10.79,-15.93 8.25,-3.88 18.38,-2.49 25.84,-8.37 -3.62,-11.68 -13.18,-19.92 -22.03,-27.72 -12.17,-10.5 -26,-19.49 -41.55,-24.03 -0.87,5.6 -1.69,11.32 -3.94,16.58 -4.46,9.28 -12.03,16.7 -20.32,22.63 -23.09,16.41 -52.37,22.37 -80.31,21.02 -3,2.52 -6.54,5.05 -7.43,9.12 -5.51,22.75 -3.99,47.37 5.32,68.93 2.98,6.83 4.78,14.08 7.07,21.15 17.95,-6.75 37.02,-10.12 56.11,-11.39 12.26,-0.79 24.62,-1.13 36.83,0.5 6.81,1.04 14.21,3.43 18.3,9.37 1.7,2.48 3.47,5.07 3.97,8.11 2.07,10.68 3.4,21.5 4.47,32.33 6.05,-5.11 7.73,-13.25 12.46,-19.35 5.28,-8.6 16.77,-12.4 26.24,-9.2 2.36,0.83 4.4,2.36 6.75,3.25 3.75,-0.03 7.13,-2.66 10.98,-2 5.62,0.72 9.15,5.67 12.61,9.64 4.3,0.34 9.27,-0.07 12.64,3.19 4.43,5.12 4.34,12.9 1.33,18.71 -2.58,5.48 -7.47,9.52 -13,11.82 -1.28,2.94 -2.29,5.99 -3.09,9.11 6.55,-0.27 12.9,-3.22 19.49,-2.11 4.02,1.13 5.54,5.52 7.32,8.84 -1.9,4.93 -4.04,10.52 -9.23,12.81 -5.7,3.29 -12.47,1.99 -18.7,1.91 -4.67,16.07 -18.99,26.14 -31.9,35.41 -14.05,9.83 -27.22,21.57 -43.53,27.58 -8.22,2.7 -17.17,5 -25.77,2.67 -7.95,-2.28 -15.2,-8.6 -16.83,-16.97 -0.78,-3.37 -0.01,-6.81 0.99,-10.04 -3,-0.18 -6,-0.37 -9,-0.56 0.05,-4.21 2.25,-7.83 4.8,-11 6.86,-8.85 10.82,-19.51 13.8,-30.19 2.76,-13.59 3.19,-27.95 -0.56,-41.39 -4.02,-9.42 -14.97,-12.58 -24.22,-14.15 -19.27,-2.51 -39.15,-1.52 -57.89,3.82 -8.76,2.26 -13.6,10.77 -21.42,14.72 -5.76,3.52 -12.54,4.33 -18.9,6.23 -7.24,1.65 -15.36,1.57 -21.45,6.43 -13.8,11.06 -27.21,23.22 -36.39,38.54 -6.05,10.14 -9.78,22.21 -7.9,34.07 0.58,4.69 4.1,8.37 7.72,11.1 7.84,5.52 17.83,6.76 27.2,6.52 6.5,-0.1 12.34,-3.28 18.21,-5.73 4.39,1.79 9.15,1.42 13.79,1.38 9.51,-0.22 17.62,9.84 15.26,19.1 -2.24,8.64 -10.42,13.64 -14.66,21.14 -5.57,8.99 -7.16,19.7 -11.92,29.07 -5.12,9.74 -13.07,17.94 -22.56,23.49 -3.33,2.14 -7.42,3.76 -9.41,7.4 -1.8,3.83 -3.23,7.91 -5.96,11.23 -5.19,7.01 -14.12,10.63 -22.7,10.34 -5.79,-0.47 -11.64,-1.85 -16.74,-4.69 -3.3,-3.53 -4.91,-8.27 -6.85,-12.62 -3.51,3.31 -7.33,7.22 -12.49,7.4 -4.28,-0.2 -7.89,-2.96 -12.06,-3.67 -2.33,-0.37 -4.09,1.35 -5.77,2.66 1.03,-3.92 6.01,-3.09 8.98,-4.12 -5.25,0.44 -11.97,2.41 -15.61,-2.75 -5.83,-4.05 -0.67,-12.13 -4.78,-17.08 -2.98,-4.46 -3.47,-10.58 -0.91,-15.34 4.01,-7.48 11.71,-12.86 20.12,-14.01 13,-1.88 26.24,2.68 39.12,-0.77 3.01,-0.57 5.05,-2.99 7.18,-4.96 -12.29,-3.47 -25.04,-9.38 -31.78,-20.81 -8.61,-15.25 -9,-33.86 -4.95,-50.55 4.96,-20.7 17.14,-38.51 27.67,-56.68 3.27,-5.83 8.15,-10.45 12.43,-15.51 1.21,-1.48 2.77,-2.61 4.35,-3.65 -20.95,-4.28 -41.74,-13.67 -55.83,-30.21 -12.64,-15.58 -21.01,-34.01 -32.58,-50.32 -3.77,-5.45 -8.15,-10.45 -12.46,-15.48 -10.24,-11.52 -25.8,-17.81 -41.15,-17.26 -5.22,0.44 -11.27,-1.04 -15.63,2.64 -8.73,6.42 -10.82,18.13 -18.81,25.23 -5.54,5.06 -12.94,8.91 -20.63,8.11 -6.22,-0.64 -11.19,-5.19 -14.63,-10.09 -5.28,-7.9 -7.53,-18.09 -5.15,-27.37 6.35,-24.85 28.63,-44.45 53.86,-48.4 11.9,-1.57 24.03,0.72 35.16,5 4.71,2.1 9.82,-1.66 14.53,0.52 6.32,2.41 10.27,8.21 14.97,12.75 2.07,-0.31 4.15,-0.61 6.23,-0.92 6.8,6.37 11.12,14.8 14.41,23.4 3.72,9.87 7.62,19.67 11.46,29.49 6.16,15.45 13.37,30.94 24.88,43.2 10.53,10.8 23.63,19.67 38.51,23.04 -3.64,-14.48 -4.72,-29.51 -3.9,-44.39 0.78,-16.86 3.98,-33.46 6.8,-50.06 2.65,-15 7.19,-30.35 17.52,-41.96 -6.29,-7.9 -13.5,-15.1 -18.93,-23.66 -14.84,-23.7 -20.95,-51.65 -24.32,-79.08 -3.6,-34.03 -0.89,-68.32 2.65,-102.24 1.78,-22.15 0.5,-44.65 -4.77,-66.27 -4.28,-19.65 -0.44,-40.4 8.1,-58.38 z"
         inkscape:connector-curvature="0"
         style="opacity:1;fill:#000000" />
    </g>
  </g>
  <g
     inkscape:groupmode="layer"
     id="layer3"
     inkscape:label="Combined"
     style="display:inline"
     transform="translate(-0.26458346,0.26418453)">
    <g
       id="g138"
       transform="matrix(1.4628571,0,0,1.0039215,-34.956749,-0.52980838)">
      <g
         id="g4986"
         transform="matrix(0.11004396,0.02158504,-0.02222585,0.10752053,53.456446,-17.909806)"
         style="display:inline;fill:#000000">
        <path
           id="path4948"
           d="m 35.3,468.4 c -6,-11.4 -9.7,-21.5 -11.2,-29.9 -1.1,-6.4 -0.9,-11.8 0.5,-16 1.4,-3.9 3.6,-5.9 4.8,-6.7 0.4,-0.2 0.8,-0.4 1.2,-0.4 l 45.8,-1.2 c 1.3,0 2.5,0.7 3.1,1.8 0.6,1.1 0.5,2.4 -0.2,3.4 -3.9,6.1 -7.3,15.8 -1.4,27.9 l 0.3,0.6 0.3,0.5 0.4,0.6 c 6.6,11.2 16.3,13.9 23.4,14.2 h 0.1 c 1.2,0.1 2.3,0.7 2.9,1.8 0.6,1.2 0.5,2.6 -0.3,3.6 L 77.7,505 c -0.4,0.6 -1,0.9 -1.6,1.1 -1.6,0.5 -4.3,0.9 -7.9,-0.1 -4.4,-1.2 -8.9,-4.2 -13.5,-8.8 -6,-6 -12,-14.6 -17.8,-25.7 z"
           class="st0"
           inkscape:connector-curvature="0"
           style="fill:#000000" />
        <path
           id="path4950"
           d="m 232.5,385.2 c -0.2,-0.4 -0.4,-0.9 -0.6,-1.4 -0.9,-3.1 -1.7,-6.3 -2.3,-9.4 -1.7,-8.5 -3,-21.2 0.6,-32.9 0.6,-2 1.9,-3.6 3.7,-4.6 l 11,-5.8 c 1.8,-0.9 3.8,-1.1 5.6,-0.6 1.9,0.6 3.5,1.9 4.5,3.7 0.7,1.2 0.9,2.6 0.9,4.1 v 0.2 c -0.4,6.4 0.1,13.5 1.6,20.9 0.8,4.1 1.9,8.3 3.3,12.5 1.1,3.5 -0.4,7.2 -3.6,8.9 l -14.4,7.7 c -1.8,0.9 -3.8,1.1 -5.7,0.5 -2.1,-0.7 -3.7,-2 -4.6,-3.8 z"
           class="st0"
           inkscape:connector-curvature="0"
           style="fill:#000000" />
        <path
           id="path4952"
           d="m 261.3,370 c -0.2,-0.4 -0.4,-0.9 -0.6,-1.4 -0.9,-3.1 -1.7,-6.3 -2.3,-9.4 -1.7,-8.5 -3,-21.2 0.6,-32.9 0.6,-2 1.9,-3.6 3.7,-4.6 l 11,-5.8 c 1.8,-0.9 3.8,-1.1 5.6,-0.6 1.9,0.6 3.5,1.9 4.5,3.7 0.6,1.2 0.9,2.6 0.9,4.1 l -1,0.1 1,0.1 c -0.4,6.4 0.1,13.5 1.6,20.9 0.8,4.1 1.9,8.3 3.3,12.4 1.1,3.5 -0.4,7.2 -3.6,8.9 l -14.4,7.7 c -1.8,0.9 -3.8,1.1 -5.7,0.5 -2.1,-0.7 -3.7,-2 -4.6,-3.7 z"
           class="st0"
           inkscape:connector-curvature="0"
           style="fill:#000000" />
        <path
           id="path4954"
           d="m 289.2,351.2 c -0.4,-0.8 -0.7,-1.6 -0.9,-2.5 -0.4,-1.6 -0.8,-3.2 -1.1,-4.8 -1.6,-8.1 -2.9,-20.1 0.1,-31.5 0.8,-2.9 2.7,-5.3 5.5,-6.8 l 14.5,-7.7 c 1.1,-0.6 2.3,-0.7 3.4,-0.3 1.2,0.4 2.1,1.2 2.7,2.3 0.5,0.9 0.6,1.9 0.5,2.9 -0.2,1.7 -0.4,3.4 -0.5,5.1 -0.4,6.5 0.1,13.5 1.6,20.9 0.6,3.3 1.5,6.6 2.5,9.9 1.5,5 -0.8,10.4 -5.4,12.8 l -7.9,4.2 c -2.6,1.4 -5.6,1.7 -8.4,0.8 -2.9,-0.8 -5.3,-2.8 -6.6,-5.3 z"
           class="st0"
           inkscape:connector-curvature="0"
           style="fill:#000000" />
        <path
           id="path4956"
           d="m 175,415.7 c -0.2,-0.4 -0.4,-0.9 -0.6,-1.4 -0.9,-3.2 -1.7,-6.3 -2.3,-9.4 -1.7,-8.5 -3,-21.2 0.6,-32.9 0.6,-2 1.9,-3.6 3.7,-4.6 l 11,-5.8 c 1.8,-0.9 3.8,-1.1 5.6,-0.6 1.9,0.6 3.5,1.9 4.5,3.7 0.6,1.2 0.9,2.6 0.9,4.1 l -1,0.1 1,0.1 c -0.4,6.5 0.1,13.5 1.6,20.9 0.8,4.1 1.9,8.3 3.3,12.5 1.1,3.5 -0.4,7.2 -3.6,8.9 l -14.4,7.7 c -1.8,0.9 -3.8,1.1 -5.7,0.5 -2.1,-0.7 -3.7,-2 -4.6,-3.8 0,0 0,0 0,0 z"
           class="st0"
           inkscape:connector-curvature="0"
           style="fill:#000000" />
        <path
           id="path4958"
           d="m 203.7,400.5 c -0.2,-0.4 -0.4,-0.9 -0.6,-1.4 -0.9,-3.2 -1.7,-6.3 -2.3,-9.4 -1.7,-8.5 -3,-21.2 0.6,-32.9 0.6,-2 1.9,-3.6 3.7,-4.6 l 11,-5.8 c 1.8,-0.9 3.8,-1.1 5.6,-0.6 1.9,0.6 3.5,1.9 4.5,3.7 0.7,1.2 0.9,2.6 0.9,4.1 v 0.1 c -0.4,6.4 0.1,13.5 1.6,20.9 0.8,4.1 1.9,8.3 3.3,12.5 1.1,3.5 -0.4,7.2 -3.6,8.9 l -14.4,7.7 c -1.8,0.9 -3.8,1.1 -5.7,0.5 -2.1,-0.7 -3.6,-2 -4.6,-3.7 z"
           class="st0"
           inkscape:connector-curvature="0"
           style="fill:#000000" />
        <path
           id="path4960"
           d="m 117.4,446.2 c -0.2,-0.4 -0.4,-0.9 -0.6,-1.4 -0.9,-3.2 -1.7,-6.3 -2.3,-9.4 -1.7,-8.5 -3,-21.2 0.5,-32.9 0.6,-2 1.9,-3.6 3.7,-4.6 l 11,-5.8 c 1.8,-0.9 3.8,-1.1 5.6,-0.6 1.9,0.6 3.5,1.9 4.4,3.7 0.7,1.2 0.9,2.6 0.9,4.1 v 0.1 c -0.4,6.5 0.1,13.5 1.6,20.9 0.8,4.1 1.9,8.3 3.3,12.5 1.1,3.5 -0.4,7.2 -3.6,8.9 l -14.4,7.7 c -1.8,0.9 -3.8,1.1 -5.7,0.5 -1.9,-0.6 -3.5,-1.9 -4.4,-3.7 z"
           class="st0"
           inkscape:connector-curvature="0"
           style="fill:#000000" />
        <path
           id="path4962"
           d="m 146.2,431 c -0.2,-0.4 -0.4,-0.9 -0.6,-1.4 -0.9,-3.2 -1.7,-6.3 -2.3,-9.4 -1.7,-8.5 -3,-21.2 0.6,-32.9 0.6,-2 1.9,-3.6 3.7,-4.6 l 11,-5.8 c 1.8,-0.9 3.8,-1.1 5.6,-0.6 1.9,0.6 3.5,1.9 4.5,3.7 0.6,1.2 0.9,2.6 0.9,4.1 l -1,0.1 1,0.1 c -0.4,6.5 0.1,13.5 1.6,20.9 0.8,4.1 1.9,8.3 3.3,12.5 1.1,3.5 -0.4,7.2 -3.6,8.9 l -14.4,7.7 c -1.8,0.9 -3.8,1.1 -5.7,0.5 -2.1,-0.8 -3.7,-2.1 -4.6,-3.8 z"
           class="st0"
           inkscape:connector-curvature="0"
           style="fill:#000000" />
        <polygon
           id="polygon4964"
           points="264.2,373.3 262.3,374 262.3,373.9 "
           class="st0"
           style="fill:#000000" />
        <path
           id="path4966"
           d="m 79.8,447.5 c -10,-19 3.9,-30.8 4.1,-31 l 0.1,-0.1 17.2,-9.1 c 1.8,-0.9 3.8,-1.1 5.6,-0.6 1.9,0.6 3.5,1.9 4.5,3.7 0.6,1.2 0.9,2.6 0.9,4.1 l -1,0.1 1,0.1 c -0.4,6.4 0.1,13.5 1.6,20.9 0.8,4.1 1.9,8.3 3.3,12.5 1.1,3.5 -0.4,7.2 -3.6,8.9 l -7.7,4.1 h -0.1 c -0.3,0 -15.7,5.6 -25.9,-13.6 z"
           class="st0"
           inkscape:connector-curvature="0"
           style="fill:#000000" />
        <path
           id="path4968"
           d="m 478.7,164.5 c -1.3,-2.5 -0.4,-5.5 2.1,-6.9 1.2,-0.6 2.6,-0.8 3.9,-0.4 1.3,0.4 2.4,1.3 3,2.5 l 58.5,110.5 c 1.3,2.5 0.4,5.6 -2.1,6.9 -1.2,0.6 -2.6,0.8 -3.9,0.4 -1.3,-0.4 -2.4,-1.3 -3,-2.5 z"
           class="st0"
           inkscape:connector-curvature="0"
           style="fill:#000000" />
        <path
           id="path4970"
           d="m 318.6,338.6 c -0.3,-0.5 -0.5,-1.1 -0.6,-1.6 -0.8,-2.8 -1.5,-5.6 -2,-8.4 -1.8,-9.3 -3.1,-23 1.4,-35.4 0.2,-0.5 0.5,-0.9 1,-1.1 l 6.6,-3.5 c 1.3,-0.7 2.8,-1 4.2,-0.7 1.7,0.4 3.1,1.4 3.9,2.9 l 17.6,33.3 c 1.6,3 0.4,6.7 -2.5,8.2 l -18.1,9.6 c -2,1 -4.2,1.3 -6.4,0.6 -2.3,-0.5 -4,-1.9 -5.1,-3.9 0,0 0,0 0,0 z"
           class="st0"
           inkscape:connector-curvature="0"
           style="fill:#000000" />
        <path
           id="path4972"
           d="M 329.8,287.2"
           class="st0"
           inkscape:connector-curvature="0"
           style="fill:#000000" />
        <path
           id="path4974"
           d="m 389.1,282.2 c -0.2,-0.3 -0.3,-0.7 -0.2,-1.1 0.4,-3.4 1.1,-6.7 2.1,-9.9 3.9,-12.1 12,-22.4 22.8,-28.9 0.7,-0.4 1.5,-0.4 2.1,0.1 6.3,4.7 11.4,10.6 15.1,17.6 l 0.2,0.4 c 3.7,7.2 5.7,14.9 5.8,23 0,0.8 -0.4,1.5 -1.1,1.8 -11.6,5 -24.7,5.7 -36.8,1.8 -3.2,-1 -6.3,-2.4 -9.3,-4 -0.2,-0.2 -0.5,-0.4 -0.7,-0.8 z"
           class="st0"
           inkscape:connector-curvature="0"
           style="fill:#000000" />
        <path
           id="path4976"
           d="m 394.4,311.2 c -2.7,-5.2 -4.5,-10.8 -5.3,-16.6 -0.1,-0.7 0.2,-1.3 0.7,-1.7 0.5,-0.4 1.3,-0.5 1.9,-0.2 13.2,5.6 28,6.3 41.6,2 0.9,-0.3 1.8,0.1 2.3,0.9 0.2,0.4 0.3,0.9 0.2,1.3 -0.3,1.2 -0.6,2.5 -1,3.6 -3.9,12.1 -12,22.4 -22.8,28.9 -0.7,0.4 -1.5,0.4 -2.1,-0.1 -6.3,-4.7 -11.5,-10.7 -15.1,-17.6 z"
           class="st0"
           inkscape:connector-curvature="0"
           style="fill:#000000" />
        <path
           id="path4978"
           d="m 368.5,261.1 c -3.6,-7.1 -5.6,-15 -5.8,-23 0,-0.8 0.4,-1.5 1.2,-1.8 11.6,-5 24.7,-5.7 36.8,-1.8 1.2,0.4 2.4,0.8 3.6,1.3 0.4,0.2 0.7,0.5 0.9,0.9 0.4,0.8 0.2,1.8 -0.5,2.4 -11.4,8.6 -19.4,21 -22.5,35 -0.1,0.7 -0.6,1.2 -1.3,1.4 -0.6,0.2 -1.3,0 -1.8,-0.4 -4.1,-3.9 -7.6,-8.5 -10.3,-13.6 z"
           class="st0"
           inkscape:connector-curvature="0"
           style="fill:#000000" />
        <path
           id="path4980"
           d="m 281,182.3 c -1.6,-3 -1.7,-6.4 -0.4,-9.5 l 10.5,-24.4 c 0.7,-1.6 2,-3 3.6,-3.9 l 103.8,-55 c 2.2,-1.2 4.7,-1.5 7.1,-1.1 l 24.6,4.8 c 3.6,0.7 6.6,3 8.4,6.2 l 130.3,245.9 c 1.5,2.9 1.7,6.3 0.5,9.3 l -8.5,21.5 c -1.3,3.2 -3.7,5.9 -6.8,7.6 l -104.8,55.5 c -3,1.6 -6.6,2 -9.9,1.1 L 416.9,434 c -1.8,-0.5 -3.4,-1.8 -4.3,-3.4 z m 99.5,104.4 c 0.1,0.3 0.2,0.5 0.2,0.8 0,9.8 2.4,19.2 7,27.8 0.7,1.3 1.5,2.7 2.3,4 4.7,7.5 11.3,14 19.5,19.3 l 0.9,0.6 2,-1 c 18.2,-9.4 30.3,-27.2 32.4,-47.6 0.1,-0.6 0.4,-1.1 0.9,-1.4 17.7,-10.3 28.9,-28.7 29.8,-49.2 l 0.1,-2.3 -1.9,-1.2 c -17.2,-11.1 -38.7,-12.7 -57.4,-4.2 -0.5,0.2 -1.2,0.2 -1.7,-0.1 C 396.8,222 375.3,221.6 357,231 l -2,1 v 1 c -0.5,9.8 1,18.9 4.4,27.1 0.7,1.7 1.5,3.5 2.4,5.1 4.4,8.3 10.5,15.3 18.1,20.8 0.3,0.2 0.4,0.4 0.6,0.7 z"
           class="st0"
           inkscape:connector-curvature="0"
           style="fill:#000000" />
        <path
           id="path4982"
           d="m 444.8,277.7 c -0.1,-0.2 -0.2,-0.4 -0.2,-0.6 -0.9,-7.1 -3,-13.8 -6.2,-20.2 l -0.3,-0.5 c -3.2,-6.1 -7.5,-11.6 -12.6,-16.3 -0.2,-0.1 -0.3,-0.3 -0.4,-0.5 -0.3,-0.5 -0.3,-1.1 -0.1,-1.6 0.2,-0.5 0.6,-0.9 1.2,-1.1 13.3,-3.9 27.9,-2.3 40.1,4.3 0.3,0.2 0.6,0.5 0.8,0.8 0.2,0.3 0.3,0.7 0.2,1.1 -1.6,13.8 -8.8,26.6 -19.7,35.2 -0.4,0.3 -1,0.5 -1.5,0.4 -0.6,-0.2 -1.1,-0.5 -1.3,-1 z"
           class="st0"
           inkscape:connector-curvature="0"
           style="fill:#000000" />
        <polygon
           id="polygon4984"
           points=""
           class="st1"
           style="fill:#000000" />
      </g>
      <g
         id="g4990"
         transform="matrix(0.16733003,0,0,0.1631328,24.039721,16.574172)"
         style="display:inline;fill:#000000">
        <path
           id="path4988"
           d="m 198.33,17.31 c 3.72,-7.9 11.46,-12.84 18.96,-16.72 4.46,-1.35 9.3,0.58 12.6,3.66 5.08,4.72 12.19,0.84 18.19,1.64 4.43,0.33 7.35,4.17 11.34,5.59 2.58,0.3 5.1,-0.61 7.66,-0.76 8.03,-0.55 16.65,3.35 20.51,10.64 8.12,16.66 4.7,39.17 -10.26,50.9 1.15,3.66 3.74,6.84 4.17,10.7 -0.27,9.49 -6.02,18.56 -14.29,23.15 -4.72,2.74 -10.55,3.65 -14.49,7.64 -3.87,4.93 -6.05,11.02 -7.29,17.11 -3.29,16.61 -6.5,33.27 -7.99,50.15 13.15,1.05 25.95,8.79 31.35,21.11 5.39,-11.08 13.64,-20.55 23.17,-28.27 13.94,-11.32 30.02,-19.52 45.76,-27.99 8.75,-3.02 18.8,-4.08 27.55,-0.43 0.38,1.32 0.78,2.64 1.17,3.97 8.51,-0.2 17.15,-0.59 25.51,1.3 2.99,0.63 4.74,3.43 6.9,5.33 -1.78,1.31 -3.55,2.61 -5.34,3.9 2.54,1.46 5.49,2.76 6.94,5.47 0.93,1.68 0.62,3.67 0.73,5.51 -3.83,1.18 -7.71,2.18 -11.66,2.84 6.25,7.53 10.53,16.43 16.6,24.1 7.37,11.52 4.29,25.8 4.21,38.65 3.41,-2.57 6.61,-5.7 10.76,-7.05 4.8,-1.25 10.41,-1.01 14.42,2.21 5.64,4.42 8.7,11.39 9.94,18.29 1.5,9.37 -1.38,18.62 -3.32,27.69 15.88,3.62 31.51,9.76 44.3,20.06 17.42,15.18 33.04,34.54 37.26,57.85 1.9,9.31 10.02,15.51 17.96,19.72 -0.02,1.02 -0.04,2.04 -0.06,3.07 -0.97,0.91 -1.95,1.82 -2.92,2.74 8.13,8.29 14.57,19.05 14.94,30.92 0.3,4.88 -1.37,9.53 -2.33,14.24 -1.79,10.43 0.35,20.97 2.1,31.26 -3.44,1.88 -7.52,2.77 -11.36,1.66 -2.39,-2.13 -2.71,-5.56 -3.65,-8.44 -7.38,5.42 -15.63,11.42 -25.27,10.73 -5.34,-0.82 -10.58,-2.22 -15.92,-3.07 -5.95,-0.93 -10.96,-4.73 -16.93,-5.55 -6.4,-1.18 -13.59,-1.72 -18.46,-6.59 -7.57,-6.78 -8.88,-17.54 -9.39,-27.1 0.19,-3.1 -3.18,-4.07 -5.56,-4.74 -9.98,-2.7 -20.53,-5.75 -30.88,-3.25 -5.05,1.29 -9.28,4.52 -13.99,6.6 -1.57,-3.93 -2.91,-7.96 -3.95,-12.06 9.77,-4.66 17.74,-12.15 26.97,-17.68 8.42,-5.1 18.34,-6.48 27.42,-9.97 -0.44,-7.05 5.48,-12.3 10.79,-15.93 8.25,-3.88 18.38,-2.49 25.84,-8.37 -3.62,-11.68 -13.18,-19.92 -22.03,-27.72 -12.17,-10.5 -26,-19.49 -41.55,-24.03 -0.87,5.6 -1.69,11.32 -3.94,16.58 -4.46,9.28 -12.03,16.7 -20.32,22.63 -23.09,16.41 -52.37,22.37 -80.31,21.02 -3,2.52 -6.54,5.05 -7.43,9.12 -5.51,22.75 -3.99,47.37 5.32,68.93 2.98,6.83 4.78,14.08 7.07,21.15 17.95,-6.75 37.02,-10.12 56.11,-11.39 12.26,-0.79 24.62,-1.13 36.83,0.5 6.81,1.04 14.21,3.43 18.3,9.37 1.7,2.48 3.47,5.07 3.97,8.11 2.07,10.68 3.4,21.5 4.47,32.33 6.05,-5.11 7.73,-13.25 12.46,-19.35 5.28,-8.6 16.77,-12.4 26.24,-9.2 2.36,0.83 4.4,2.36 6.75,3.25 3.75,-0.03 7.13,-2.66 10.98,-2 5.62,0.72 9.15,5.67 12.61,9.64 4.3,0.34 9.27,-0.07 12.64,3.19 4.43,5.12 4.34,12.9 1.33,18.71 -2.58,5.48 -7.47,9.52 -13,11.82 -1.28,2.94 -2.29,5.99 -3.09,9.11 6.55,-0.27 12.9,-3.22 19.49,-2.11 4.02,1.13 5.54,5.52 7.32,8.84 -1.9,4.93 -4.04,10.52 -9.23,12.81 -5.7,3.29 -12.47,1.99 -18.7,1.91 -4.67,16.07 -18.99,26.14 -31.9,35.41 -14.05,9.83 -27.22,21.57 -43.53,27.58 -8.22,2.7 -17.17,5 -25.77,2.67 -7.95,-2.28 -15.2,-8.6 -16.83,-16.97 -0.78,-3.37 -0.01,-6.81 0.99,-10.04 -3,-0.18 -6,-0.37 -9,-0.56 0.05,-4.21 2.25,-7.83 4.8,-11 6.86,-8.85 10.82,-19.51 13.8,-30.19 2.76,-13.59 3.19,-27.95 -0.56,-41.39 -4.02,-9.42 -14.97,-12.58 -24.22,-14.15 -19.27,-2.51 -39.15,-1.52 -57.89,3.82 -8.76,2.26 -13.6,10.77 -21.42,14.72 -5.76,3.52 -12.54,4.33 -18.9,6.23 -7.24,1.65 -15.36,1.57 -21.45,6.43 -13.8,11.06 -27.21,23.22 -36.39,38.54 -6.05,10.14 -9.78,22.21 -7.9,34.07 0.58,4.69 4.1,8.37 7.72,11.1 7.84,5.52 17.83,6.76 27.2,6.52 6.5,-0.1 12.34,-3.28 18.21,-5.73 4.39,1.79 9.15,1.42 13.79,1.38 9.51,-0.22 17.62,9.84 15.26,19.1 -2.24,8.64 -10.42,13.64 -14.66,21.14 -5.57,8.99 -7.16,19.7 -11.92,29.07 -5.12,9.74 -13.07,17.94 -22.56,23.49 -3.33,2.14 -7.42,3.76 -9.41,7.4 -1.8,3.83 -3.23,7.91 -5.96,11.23 -5.19,7.01 -14.12,10.63 -22.7,10.34 -5.79,-0.47 -11.64,-1.85 -16.74,-4.69 -3.3,-3.53 -4.91,-8.27 -6.85,-12.62 -3.51,3.31 -7.33,7.22 -12.49,7.4 -4.28,-0.2 -7.89,-2.96 -12.06,-3.67 -2.33,-0.37 -4.09,1.35 -5.77,2.66 1.03,-3.92 6.01,-3.09 8.98,-4.12 -5.25,0.44 -11.97,2.41 -15.61,-2.75 -5.83,-4.05 -0.67,-12.13 -4.78,-17.08 -2.98,-4.46 -3.47,-10.58 -0.91,-15.34 4.01,-7.48 11.71,-12.86 20.12,-14.01 13,-1.88 26.24,2.68 39.12,-0.77 3.01,-0.57 5.05,-2.99 7.18,-4.96 -12.29,-3.47 -25.04,-9.38 -31.78,-20.81 -8.61,-15.25 -9,-33.86 -4.95,-50.55 4.96,-20.7 17.14,-38.51 27.67,-56.68 3.27,-5.83 8.15,-10.45 12.43,-15.51 1.21,-1.48 2.77,-2.61 4.35,-3.65 -20.95,-4.28 -41.74,-13.67 -55.83,-30.21 -12.64,-15.58 -21.01,-34.01 -32.58,-50.32 -3.77,-5.45 -8.15,-10.45 -12.46,-15.48 -10.24,-11.52 -25.8,-17.81 -41.15,-17.26 -5.22,0.44 -11.27,-1.04 -15.63,2.64 -8.73,6.42 -10.82,18.13 -18.81,25.23 -5.54,5.06 -12.94,8.91 -20.63,8.11 -6.22,-0.64 -11.19,-5.19 -14.63,-10.09 -5.28,-7.9 -7.53,-18.09 -5.15,-27.37 6.35,-24.85 28.63,-44.45 53.86,-48.4 11.9,-1.57 24.03,0.72 35.16,5 4.71,2.1 9.82,-1.66 14.53,0.52 6.32,2.41 10.27,8.21 14.97,12.75 2.07,-0.31 4.15,-0.61 6.23,-0.92 6.8,6.37 11.12,14.8 14.41,23.4 3.72,9.87 7.62,19.67 11.46,29.49 6.16,15.45 13.37,30.94 24.88,43.2 10.53,10.8 23.63,19.67 38.51,23.04 -3.64,-14.48 -4.72,-29.51 -3.9,-44.39 0.78,-16.86 3.98,-33.46 6.8,-50.06 2.65,-15 7.19,-30.35 17.52,-41.96 -6.29,-7.9 -13.5,-15.1 -18.93,-23.66 -14.84,-23.7 -20.95,-51.65 -24.32,-79.08 -3.6,-34.03 -0.89,-68.32 2.65,-102.24 1.78,-22.15 0.5,-44.65 -4.77,-66.27 -4.28,-19.65 -0.44,-40.4 8.1,-58.38 z"
           inkscape:connector-curvature="0"
           style="opacity:1;fill:#000000" />
      </g>
    </g>
  </g>
  <style
     id="style890"
     type="text/css">
	.st0{fill:#010101;}
	.st1{fill:#FFFFFF;}
</style>
  <style
     id="style4875"
     type="text/css">
	.st0{fill:#010101;}
	.st1{fill:#FFFFFF;}
</style>
</svg>
